<?xml version="1.0" encoding="UTF-8" standalone="no"?>
<svg
   xmlns:dc="http://purl.org/dc/elements/1.1/"
   xmlns:cc="http://creativecommons.org/ns#"
   xmlns:rdf="http://www.w3.org/1999/02/22-rdf-syntax-ns#"
   xmlns:svg="http://www.w3.org/2000/svg"
   xmlns="http://www.w3.org/2000/svg"
   viewBox="0 0 575 201"
   height="50"
   width=""
   id="svg2"
   version="1.1">
  <metadata
     id="metadata8">
    <rdf:RDF>
      <cc:Work
         rdf:about="">
        <dc:format>image/svg+xml</dc:format>
        <dc:type
           rdf:resource="http://purl.org/dc/dcmitype/StillImage" />
        <dc:title></dc:title>
      </cc:Work>
    </rdf:RDF>
  </metadata>
  <defs
     id="defs6" />
  <g
     transform="translate(-1.6475641,1.6475658)"
     id="g12">
    <path
       id="path16"
       d="M 0,100.5 V 0 H 287.5 575 V 100.5 201 H 287.5 0 Z"
       style="fill:#fafafa" />
    <path
       id="path14"
       d="m 395.50192,172.8745 c -8.42466,-1.99409 -14.77424,-8.73422 -16.40744,-17.41662 -1.70974,-9.08928 0.99706,-16.8125 7.9903,-22.79845 14.51188,-12.42163 37.16597,-1.58408 37.29273,17.84057 0.0981,15.03608 -13.93612,25.91064 -28.87559,22.3745 z m -226.42071,-2.52132 c -20.40647,-10.16897 -12.47442,-42.2315 10.47245,-42.33122 7.17436,-0.0312 14.56533,3.84962 18.71688,9.82773 2.99581,4.31386 3.22946,5.24096 3.22946,12.81417 0,7.466 -0.2579,8.53081 -3.01708,12.45663 -6.58813,9.37378 -18.98527,12.42342 -29.40171,7.23269 z m 109.14607,0.88969 c -0.97105,-0.67828 -1.20807,-5.37503 -1,-19.81593 L 277.5,132.5 l 9.80445,-0.63953 c 17.65458,-1.15157 26.89647,-7.87739 29.75682,-21.65559 3.03122,-14.601325 -3.30913,-27.24115 -15.92786,-31.75302 -4.13523,-1.478566 -29.70524,-3.444907 -30.35864,-2.334588 -0.12387,0.2105 -0.46137,21.532728 -0.75,47.382728 l -0.52477,47 h -19 -19 l -0.25716,-66.32834 -0.25717,-66.328334 35.25717,0.429383 c 39.78698,0.484551 42.99876,0.927196 57.75716,7.96006 15.9266,7.589548 27.89042,22.412337 32.46841,40.22733 1.95142,7.593831 1.9677,24.789571 0.0322,34.039901 -4.80239,22.95245 -22.99701,41.90149 -46.51698,48.44576 -8.11055,2.2567 -29.58985,3.81041 -31.75639,2.29711 z M 37.242696,170.17116 c -0.993125,-0.6305 -1.203241,-14.54747 -1,-66.23469 L 36.5,38.5 63.461409,38.233268 c 30.000388,-0.296796 39.259771,0.683935 48.722631,5.160583 15.6326,7.395404 24.85319,23.629968 23.51347,41.399841 -0.70366,9.333308 -4.79801,18.317588 -11.64896,25.561458 -2.7767,2.93595 -5.04855,5.78053 -5.04855,6.32127 0,0.54075 4.725,12.30148 10.5,26.13495 5.775,13.83347 10.5,25.56191 10.5,26.06321 0,0.50129 -0.7118,1.18459 -1.58179,1.51843 -2.00648,0.76996 -34.7473,0.80167 -36.74368,0.0356 -0.81897,-0.31427 -5.693276,-9.87677 -10.831785,-21.25 L 81.5,128.5 81.180313,112.68643 C 80.824231,95.072531 81.142328,94 86.722445,94 91.601969,94 97,88.608489 97,83.734859 97,76.674691 90.518965,72.527353 80.5,73.176194 L 75.5,73.5 75.240108,120.90946 c -0.180784,32.97839 -0.598545,47.8175 -1.372445,48.75 -0.851838,1.0264 -5.126206,1.33695 -18.240108,1.32523 -9.420155,-0.008 -17.693342,-0.37451 -18.384859,-0.81353 z M 454,104.5 V 39 l 28.75,0.01478 c 36.10517,0.01856 43.5866,1.475666 52.29631,10.18537 5.62236,5.622367 7.45209,10.974312 7.45294,21.799849 8.6e-4,10.890056 -1.70494,15.543911 -8.54603,23.3158 C 531.77895,96.785905 530,99.257588 530,99.808428 c 0,0.550842 1.98722,2.166112 4.41604,3.589502 5.7579,3.37435 11.07724,9.67326 13.06308,15.46866 5.21595,15.2221 1.47287,31.59672 -9.47217,41.43726 -6.99822,6.29199 -13.70589,8.61132 -27.12511,9.37911 L 500,170.30558 V 154.15279 138 h 4.53212 c 9.1642,0 13.7037,-3.93997 12.06448,-10.47114 -0.81297,-3.23914 -3.20526,-4.4141 -10.5505,-5.18183 L 500,121.71509 V 105.51583 89.316575 l 4.0775,-1.221649 c 5.20641,-1.559876 7.79227,-6.507876 5.69163,-10.890791 -2.26743,-4.73089 -15.40907,-6.955653 -17.89794,-3.029961 -0.46231,0.729204 -0.84746,22.588326 -0.85588,48.575826 L 491,170 H 472.5 454 Z"
       style="fill:#565656" />
  </g>
</svg>
